<svg width="127" height="126" viewBox="0 0 127 126" fill="none" xmlns="http://www.w3.org/2000/svg">
<path opacity="0.5" d="M67.8718 75.7318L95.8784 98.8714L85.941 59.2439" stroke="#04FAE7" stroke-width="0.75" stroke-miterlimit="10" stroke-linejoin="round"/>
<path opacity="0.5" d="M98.599 66.5484L67.872 75.7319L85.9413 59.244L98.599 66.5484ZM35.7872 21.3596L45.4786 17.7751L40.3955 29.1955L35.7872 21.3596ZM53.2419 66.9736L28.7195 56.0532L57.8277 27.7215L53.2419 66.9736ZM58.1714 97.8617L42.9872 96.8584L34.1174 86.3379L58.1714 97.8617ZM58.1714 97.8617L53.2419 66.9736L51.712 87.0099L58.1714 97.8617Z" stroke="#04FAE7" stroke-width="0.75" stroke-miterlimit="10" stroke-linejoin="round"/>
<path opacity="0.5" d="M53.2421 66.9736L34.1176 86.3379L51.3348 86.9659" stroke="#04FAE7" stroke-width="0.75" stroke-miterlimit="10" stroke-linejoin="round"/>
<path d="M39.7977 28.9422C39.8969 28.6171 40.3212 28.391 40.649 28.5975C40.974 28.6966 41.1999 29.1208 40.9933 29.4486C40.8941 29.7737 40.4698 29.9998 40.142 29.7933C39.817 29.6942 39.6985 29.2673 39.7977 28.9422ZM44.7183 17.4723C44.9222 17.0369 45.3464 16.8109 45.7816 17.0146C46.2169 17.2183 46.4427 17.6425 46.2389 18.0778C46.035 18.5132 45.6108 18.7392 45.1755 18.5355C44.7403 18.3317 44.5144 17.9076 44.7183 17.4723ZM34.8643 21.0071C35.0131 20.5195 35.6522 20.2879 36.0875 20.4916C36.5751 20.6402 36.8064 21.2792 36.6025 21.7146C36.4538 22.2022 35.8147 22.4338 35.3794 22.2301C34.9442 22.0264 34.6605 21.4425 34.8643 21.0071ZM51.9077 86.2521C52.3402 86.3484 52.6211 86.8249 52.5247 87.2574C52.4283 87.69 51.9517 87.9711 51.5192 87.8748C51.0867 87.7785 50.8057 87.302 50.9022 86.8695C51.0509 86.3819 51.4752 86.1558 51.9077 86.2521Z" fill="#73FFF2"/>
<path d="M33.4564 85.7099C33.1095 86.0752 33.1243 86.6524 33.4894 86.9992C33.8545 87.3459 34.4317 87.3309 34.7786 86.9657C35.1255 86.6004 35.1107 86.0232 34.7456 85.6764C34.3805 85.3297 33.8033 85.3447 33.4564 85.7099Z" fill="#73FFF2"/>
<path d="M43.3344 95.7205C43.9845 95.9186 44.3757 96.4997 44.1773 97.15C43.9789 97.8002 43.3976 98.1915 42.7475 97.9934C42.0974 97.7952 41.7063 97.2141 41.9046 96.5639C42.0507 95.9688 42.6319 95.5775 43.3344 95.7205ZM48.9184 36.661C49.136 36.7628 49.3013 36.9198 49.1993 37.1375C49.0974 37.3551 48.9403 37.5205 48.7227 37.4186C48.5051 37.3168 48.3398 37.1598 48.4418 36.9421C48.4914 36.7796 48.7558 36.6114 48.9184 36.661ZM53.3852 66.271C53.7102 66.3701 53.9884 66.7391 53.8892 67.0642C53.7901 67.3893 53.4209 67.6677 53.0958 67.5686C52.7708 67.4696 52.4926 67.1005 52.5918 66.7754C52.6909 66.4503 53.0078 66.2271 53.3852 66.271ZM58.4475 26.7378C58.9351 26.8864 59.2161 27.3629 59.1197 27.7954C58.9709 28.2831 58.4943 28.5642 58.0618 28.468C57.5742 28.3194 57.2933 27.8428 57.3897 27.4103C57.4861 26.9778 57.9627 26.6966 58.4475 26.7378ZM27.1846 67.4889C27.4546 67.5356 27.5675 67.7477 27.5206 68.0177C27.4738 68.2877 27.2617 68.4007 26.9917 68.3539C26.7218 68.3072 26.6088 68.0952 26.6556 67.8252C26.7025 67.5552 26.967 67.387 27.1846 67.4889ZM58.4607 96.564C59.1632 96.7071 59.6122 97.4479 59.4689 98.1505C59.3256 98.853 58.5846 99.3023 57.8821 99.1593C57.1797 99.0162 56.7307 98.2754 56.8739 97.5728C57.0172 96.8703 57.7583 96.421 58.4607 96.564ZM29.0089 54.7555C29.7113 54.8986 30.1603 55.6395 30.017 56.342C29.8737 57.0445 29.1327 57.4938 28.4302 57.3508C27.7278 57.2077 27.2788 56.4669 27.422 55.7643C27.5653 55.0618 28.3064 54.6125 29.0089 54.7555ZM85.6052 58.7151C85.8697 58.547 86.2471 58.5909 86.4702 58.9077C86.6382 59.1721 86.5941 59.5495 86.2773 59.7727C86.0128 59.9409 85.6355 59.8969 85.4123 59.5802C85.2443 59.3158 85.2884 58.9383 85.6052 58.7151ZM67.0346 74.5172C67.7206 74.0156 68.6406 74.2605 69.0869 74.894C69.5882 75.5798 69.343 76.5 68.7094 76.9464C68.0234 77.448 67.1034 77.2032 66.6571 76.5697C66.2109 75.9362 66.3486 75.0188 67.0346 74.5172ZM95.5452 98.4501C95.8097 98.2819 96.0797 98.3287 96.2477 98.5931C96.4157 98.8575 96.3689 99.1275 96.1044 99.2956C95.8399 99.4637 95.57 99.417 95.402 99.1526C95.289 98.9405 95.3331 98.5631 95.5452 98.4501ZM87.2759 31.5797C87.5403 31.4115 87.9178 31.4555 88.0858 31.7199C88.2538 31.9843 88.2097 32.3617 87.9452 32.5298C87.6808 32.698 87.3034 32.654 87.1354 32.3896C86.9122 32.0729 87.0114 31.7478 87.2759 31.5797ZM98.15 65.8074C98.5192 65.5291 99.0591 65.6226 99.285 66.0467C99.5632 66.4158 99.4695 66.9557 99.0453 67.1818C98.6761 67.4601 98.1362 67.3666 97.9103 66.9425C97.6872 66.6257 97.7809 66.0858 98.15 65.8074Z" fill="#73FFF2"/>
</svg>
