<svg width="109" height="120" viewBox="0 0 109 120" fill="none" xmlns="http://www.w3.org/2000/svg">
<g opacity="0.3">
<path opacity="0.5" d="M65.7721 94.2793L44.8456 69.9776L67.2733 79.7424L65.7721 94.2793ZM81.3845 18.4926L88.6128 25.8767L76.1123 25.8982L81.3845 18.4926ZM46.8689 53.0467L46.8279 26.2028L84.5737 41.2102L46.8689 53.0467ZM20.6837 70.1555L15.4014 55.8844L21.3848 43.4928L20.6837 70.1555ZM20.6837 70.1555L46.8689 53.0467L27.9535 59.829L20.6837 70.1555Z" stroke="#04FAE7" stroke-width="0.75" stroke-miterlimit="10" stroke-linejoin="round"/>
<path d="M76.0995 25.2491C76.4368 25.207 76.8164 25.502 76.7617 25.8856C76.8039 26.2227 76.5089 26.6021 76.1252 26.5473C75.7879 26.5895 75.4084 26.2944 75.4631 25.9109C75.4208 25.5737 75.7623 25.2913 76.0995 25.2491ZM88.5789 25.059C89.0595 25.0674 89.4391 25.3624 89.4308 25.8429C89.4225 26.3234 89.1274 26.7028 88.6468 26.6943C88.1662 26.6859 87.7867 26.3909 87.795 25.9104C87.8033 25.4299 88.0983 25.0506 88.5789 25.059ZM81.3295 17.5064C81.8354 17.4432 82.3077 17.932 82.2994 18.4125C82.3628 18.9183 81.8739 19.3904 81.3933 19.382C80.8874 19.4452 80.415 18.9563 80.4233 18.4758C80.4316 17.9953 80.8489 17.498 81.3295 17.5064ZM28.7252 59.6983C28.8138 60.1325 28.4935 60.5835 28.0593 60.672C27.6251 60.7605 27.1739 60.4402 27.0852 60.0061C26.9965 59.572 27.3169 59.121 27.7511 59.0324C28.257 58.9692 28.6365 59.2642 28.7252 59.6983Z" fill="#73FFF2"/>
<path d="M21.6884 42.6329C21.2133 42.4653 20.6924 42.7144 20.5249 43.1893C20.3574 43.6642 20.6067 44.185 21.0817 44.3526C21.5568 44.5202 22.0777 44.271 22.2452 43.7962C22.4127 43.3213 22.1634 42.8005 21.6884 42.6329Z" fill="#73FFF2"/>
<path d="M16.582 55.7369C16.6666 56.4113 16.2957 57.0056 15.6212 57.0899C14.9466 57.1742 14.3521 56.8033 14.2676 56.129C14.1831 55.4546 14.5539 54.8603 15.2285 54.776C15.8313 54.6664 16.4259 55.0372 16.582 55.7369ZM72.7763 36.7261C72.7722 36.9664 72.6964 37.1813 72.456 37.1771C72.2157 37.1729 72.0007 37.097 72.0048 36.8568C72.009 36.6166 72.0848 36.4016 72.3251 36.4058C72.4938 36.3847 72.7552 36.5575 72.7763 36.7261ZM47.569 52.8908C47.6112 53.2279 47.3879 53.6326 47.0506 53.6747C46.7134 53.7169 46.3086 53.4935 46.2663 53.1563C46.224 52.8192 46.4474 52.4145 46.7846 52.3724C47.1219 52.3302 47.455 52.5283 47.569 52.8908ZM85.725 41.3746C85.7883 41.8803 85.4681 42.3313 85.0338 42.4199C84.5279 42.4831 84.0767 42.1628 83.9881 41.7287C83.9247 41.2229 84.245 40.7719 84.6792 40.6834C85.1134 40.5948 85.5646 40.9152 85.725 41.3746ZM35.762 29.4696C35.8295 29.7352 35.682 29.9248 35.4164 29.9923C35.1509 30.0597 34.9611 29.9122 34.8936 29.6467C34.826 29.3812 34.9735 29.1915 35.2391 29.124C35.5047 29.0566 35.7662 29.2294 35.762 29.4696ZM21.9866 69.8899C22.1428 70.5896 21.6497 71.3019 20.9499 71.4579C20.2501 71.6139 19.5375 71.1208 19.3813 70.4211C19.2251 69.7215 19.7182 69.0091 20.418 68.8532C21.1178 68.6972 21.8304 69.1903 21.9866 69.8899ZM48.1308 25.9372C48.287 26.6368 47.7939 27.3492 47.0941 27.5051C46.3943 27.6611 45.6817 27.168 45.5255 26.4683C45.3693 25.7687 45.8624 25.0564 46.5622 24.9004C47.262 24.7444 47.9747 25.2375 48.1308 25.9372ZM67.6191 79.2198C67.8805 79.3926 67.9944 79.7551 67.7963 80.088C67.6236 80.3493 67.261 80.4632 66.9279 80.2651C66.6665 80.0923 66.5525 79.7298 66.7506 79.3968C66.9234 79.1355 67.2859 79.0217 67.6191 79.2198ZM45.6128 68.7174C46.3507 69.1388 46.5028 70.0787 46.1066 70.7446C45.6852 71.4823 44.7451 71.634 44.0789 71.2379C43.341 70.8164 43.1889 69.8765 43.5851 69.2106C43.9812 68.5446 44.8749 68.2959 45.6128 68.7174ZM35.4029 104.514C35.6644 104.687 35.7319 104.952 35.5591 105.214C35.3863 105.475 35.1207 105.542 34.8593 105.37C34.5979 105.197 34.5303 104.931 34.7031 104.67C34.8506 104.48 35.2132 104.366 35.4029 104.514ZM93.0727 69.6681C93.3342 69.8409 93.4481 70.2034 93.2753 70.4647C93.1025 70.7261 92.74 70.8399 92.4785 70.6671C92.2171 70.4943 92.1032 70.1318 92.276 69.8705C92.474 69.5375 92.8113 69.4953 93.0727 69.6681ZM66.2654 93.567C66.6702 93.7903 66.8052 94.3214 66.5102 94.7007C66.2869 95.1054 65.7557 95.2403 65.3762 94.9452C64.9714 94.7219 64.8363 94.1908 65.1313 93.8115C65.3294 93.4785 65.8606 93.3436 66.2654 93.567Z" fill="#73FFF2"/>
</g>
</svg>
